<?xml version="1.0" encoding="utf-8"?>
<!-- Generator: Adobe Illustrator 17.0.0, SVG Export Plug-In . SVG Version: 6.00 Build 0)  -->
<!DOCTYPE svg PUBLIC "-//W3C//DTD SVG 1.1//EN" "http://www.w3.org/Graphics/SVG/1.1/DTD/svg11.dtd">
<svg version="1.1" id="Layer_1" xmlns="http://www.w3.org/2000/svg" xmlns:xlink="http://www.w3.org/1999/xlink" x="0px" y="0px"
	 width="235.526px" height="71.201px" viewBox="0 0 235.526 71.201" enable-background="new 0 0 235.526 71.201"
	 xml:space="preserve">
<g>
	<g>
		<path fill="#4CC2BF" d="M2673.602,1022.071c-0.88,2.275,2.747,5.718,10.806,10.229l0.733-1.315
			c-10.861-6.09-10.166-8.278-10.13-8.372c0.31-0.798,3.562-1.693,13.651,0.654l0.342-1.477
			C2679.689,1019.628,2674.516,1019.725,2673.602,1022.071"/>
		<path fill="#4CC2BF" d="M2701.448,1000.016c-1.284,0.175-2.218,1.563-2.842,4.25c-0.584,2.491-0.883,6.217-0.93,10.779l1.49-0.137
			c0.129-12.937,2.392-13.383,2.485-13.394c0.84-0.117,3.161,2.298,6,12.263l1.527-0.177
			C2706.558,1004.415,2703.905,999.685,2701.448,1000.016"/>
		<path fill="#4CC2BF" d="M2727.5,1039.472c11.482,6.772,10.695,9.041,10.66,9.13c-0.347,0.827-3.752,1.648-14.191-1.135
			l-0.387,1.459c6.601,1.748,14.726,3.227,15.972,0.264c0.963-2.316-2.827-6.027-11.283-11.015L2727.5,1039.472z"/>
		<path fill="#4CC2BF" d="M2713.083,1055.864c0.081,13.324-2.261,13.813-2.357,13.823c-0.883,0.135-3.334-2.372-6.317-12.756
			l-1.447,0.416c1.876,6.565,4.795,14.294,7.977,13.835c2.486-0.358,3.712-5.516,3.654-15.327L2713.083,1055.864z"/>
	</g>
	<path fill="#E73E30" d="M2708.634,1035.625c0.07-1.333-0.95-2.47-2.283-2.54c-1.326-0.07-2.463,0.955-2.533,2.287
		c-0.077,1.322,0.935,2.466,2.264,2.547c1.329,0.082,2.469-0.934,2.55-2.267L2708.634,1035.625l-2.41-0.126L2708.634,1035.625z"/>
	<path fill="#383938" d="M2683.803,1034.44c-0.323,5.934,1.69,11.664,5.665,16.103c3.978,4.438,9.45,7.07,15.404,7.389
		c12.286,0.674,22.832-8.77,23.507-21.057l0.005-0.099c0.644-12.288-8.828-22.812-21.12-23.456
		C2694.976,1012.676,2684.448,1022.151,2683.803,1034.44 M2705.32,1049.671c-3.747-0.204-7.184-1.859-9.685-4.65
		c-2.512-2.798-3.776-6.396-3.568-10.142c0.406-7.743,7.027-13.697,14.763-13.292c7.728,0.405,13.69,7.019,13.284,14.755
		l-0.004,0.083C2719.691,1044.146,2713.051,1050.096,2705.32,1049.671"/>
	<path fill="#E73E30" d="M2702.446,1029.741c-14.003,10.678-24.194,21.139-24.771,25.466c-0.094,0.687,0.027,1.253,0.365,1.686
		c0.334,0.445,0.846,0.717,1.529,0.807c4.319,0.575,17.117-6.473,31.124-17.149c11.466-8.74,27.433-23.19,24.406-27.155
		c-0.334-0.445-0.846-0.717-1.525-0.811C2729.251,1012.013,2716.453,1019.053,2702.446,1029.741 M2679.774,1056.201
		c-0.184-0.022-0.426-0.084-0.538-0.216c-0.104-0.14-0.095-0.39-0.074-0.578c0.444-3.253,9.07-12.94,24.201-24.472
		c15.127-11.529,26.751-17.286,30.006-16.85c0.184,0.022,0.427,0.08,0.534,0.224c0.385,0.507-0.263,2.983-5.545,8.665
		c-4.552,4.902-11.15,10.715-18.578,16.38C2694.649,1050.883,2683.024,1056.644,2679.774,1056.201"/>
	<path fill="#383938" d="M2693.841,1016.95c-10.281,6.754-13.16,20.618-6.406,30.908l6.923-4.548
		c-4.256-6.473-2.447-15.189,4.031-19.436c6.104-4.017,14.387-2.615,18.84,3.182l6.557-5.043
		C2716.708,1012.8,2703.55,1010.578,2693.841,1016.95"/>
</g>
<text transform="matrix(1 0 0 1 2740.262 1037.1113)"><tspan x="0" y="0" fill="#EE4234" font-family="'DINOT-Bold'" font-size="23.3">at</tspan><tspan x="28.169" y="0" fill="#EE4234" font-family="'DINOT-Bold'" font-size="23.3">o</tspan><tspan x="42.802" y="0" fill="#EE4234" font-family="'DINOT-Bold'" font-size="23.3">mic </tspan><tspan x="88.655" y="0" fill="#EE4234" font-family="'DINOT-Bold'" font-size="23.3">o</tspan><tspan x="103.311" y="0" fill="#EE4234" font-family="'DINOT-Bold'" font-size="23.3">bj</tspan><tspan x="130.548" y="0" fill="#EE4234" font-family="'DINOT-Bold'" font-size="23.3">e</tspan><tspan x="144.481" y="0" fill="#EE4234" font-family="'DINOT-Bold'" font-size="23.3">ct</tspan></text>
<g>
	<g>
		<path fill="#4CC2BF" d="M2666.602,1022.071c-0.88,2.275,2.747,5.718,10.806,10.229l0.733-1.315
			c-10.861-6.09-10.166-8.278-10.13-8.372c0.31-0.798,3.562-1.693,13.651,0.654l0.342-1.477
			C2672.689,1019.628,2667.516,1019.725,2666.602,1022.071"/>
		<path fill="#4CC2BF" d="M2694.448,1000.016c-1.284,0.175-2.218,1.563-2.842,4.25c-0.584,2.491-0.883,6.217-0.93,10.779l1.49-0.137
			c0.129-12.937,2.392-13.383,2.485-13.394c0.84-0.117,3.161,2.298,6,12.263l1.527-0.177
			C2699.558,1004.415,2696.905,999.685,2694.448,1000.016"/>
		<path fill="#4CC2BF" d="M2720.5,1039.472c11.482,6.772,10.695,9.041,10.66,9.13c-0.347,0.827-3.752,1.648-14.191-1.135
			l-0.387,1.459c6.601,1.748,14.726,3.227,15.972,0.264c0.963-2.316-2.827-6.027-11.283-11.015L2720.5,1039.472z"/>
		<path fill="#4CC2BF" d="M2706.083,1055.864c0.081,13.324-2.261,13.813-2.357,13.823c-0.883,0.135-3.334-2.372-6.317-12.756
			l-1.447,0.416c1.876,6.565,4.795,14.294,7.977,13.835c2.486-0.358,3.712-5.516,3.654-15.327L2706.083,1055.864z"/>
	</g>
	<path fill="#E73E30" d="M2701.634,1035.625c0.07-1.333-0.95-2.47-2.283-2.54c-1.326-0.07-2.463,0.955-2.533,2.287
		c-0.077,1.322,0.935,2.466,2.264,2.547c1.329,0.082,2.469-0.934,2.55-2.267L2701.634,1035.625l-2.41-0.126L2701.634,1035.625z"/>
	<path fill="#383938" d="M2676.803,1034.44c-0.323,5.934,1.69,11.664,5.665,16.103c3.978,4.438,9.45,7.07,15.404,7.389
		c12.286,0.674,22.832-8.77,23.507-21.057l0.005-0.099c0.644-12.288-8.828-22.812-21.12-23.456
		C2687.976,1012.676,2677.448,1022.151,2676.803,1034.44 M2698.32,1049.671c-3.747-0.204-7.184-1.859-9.685-4.65
		c-2.512-2.798-3.776-6.396-3.568-10.142c0.406-7.743,7.027-13.697,14.763-13.292c7.728,0.405,13.69,7.019,13.284,14.755
		l-0.004,0.083C2712.691,1044.146,2706.051,1050.096,2698.32,1049.671"/>
	<path fill="#E73E30" d="M2695.446,1029.741c-14.003,10.678-24.194,21.139-24.771,25.466c-0.094,0.687,0.027,1.253,0.365,1.686
		c0.334,0.445,0.846,0.717,1.529,0.807c4.319,0.575,17.117-6.473,31.124-17.149c11.466-8.74,27.433-23.19,24.406-27.155
		c-0.334-0.445-0.846-0.717-1.525-0.811C2722.251,1012.013,2709.453,1019.053,2695.446,1029.741 M2672.774,1056.201
		c-0.184-0.022-0.426-0.084-0.538-0.216c-0.104-0.14-0.095-0.39-0.074-0.578c0.444-3.253,9.07-12.94,24.201-24.472
		c15.127-11.529,26.751-17.286,30.006-16.85c0.184,0.022,0.427,0.08,0.534,0.224c0.385,0.507-0.263,2.983-5.545,8.665
		c-4.552,4.902-11.15,10.715-18.578,16.38C2687.649,1050.883,2676.024,1056.644,2672.774,1056.201"/>
	<path fill="#383938" d="M2686.841,1016.95c-10.281,6.754-13.16,20.618-6.406,30.908l6.923-4.548
		c-4.256-6.473-2.447-15.189,4.031-19.436c6.104-4.017,14.387-2.615,18.84,3.182l6.557-5.043
		C2709.708,1012.8,2696.55,1010.578,2686.841,1016.95"/>
</g>
<text transform="matrix(1 0 0 1 2733.262 1037.1113)"><tspan x="0" y="0" fill="#EE4234" font-family="'DINOT-Bold'" font-size="23.3">at</tspan><tspan x="28.169" y="0" fill="#EE4234" font-family="'DINOT-Bold'" font-size="23.3">o</tspan><tspan x="42.802" y="0" fill="#EE4234" font-family="'DINOT-Bold'" font-size="23.3">mic </tspan><tspan x="88.655" y="0" fill="#EE4234" font-family="'DINOT-Bold'" font-size="23.3">o</tspan><tspan x="103.311" y="0" fill="#EE4234" font-family="'DINOT-Bold'" font-size="23.3">bj</tspan><tspan x="130.548" y="0" fill="#EE4234" font-family="'DINOT-Bold'" font-size="23.3">e</tspan><tspan x="144.481" y="0" fill="#EE4234" font-family="'DINOT-Bold'" font-size="23.3">ct</tspan></text>
<g>
	<g>
		<path fill="#4CC2BF" d="M2666.602,1022.071c-0.88,2.275,2.747,5.718,10.806,10.229l0.733-1.315
			c-10.861-6.09-10.166-8.278-10.13-8.372c0.31-0.798,3.562-1.693,13.651,0.654l0.342-1.477
			C2672.689,1019.628,2667.516,1019.725,2666.602,1022.071"/>
		<path fill="#4CC2BF" d="M2694.448,1000.016c-1.284,0.175-2.218,1.563-2.842,4.25c-0.584,2.491-0.883,6.217-0.93,10.779l1.49-0.137
			c0.129-12.937,2.392-13.383,2.485-13.394c0.84-0.117,3.161,2.298,6,12.263l1.527-0.177
			C2699.558,1004.415,2696.905,999.685,2694.448,1000.016"/>
		<path fill="#4CC2BF" d="M2720.5,1039.472c11.482,6.772,10.695,9.041,10.66,9.13c-0.347,0.827-3.752,1.648-14.191-1.135
			l-0.387,1.459c6.601,1.748,14.726,3.227,15.972,0.264c0.963-2.316-2.827-6.027-11.283-11.015L2720.5,1039.472z"/>
		<path fill="#4CC2BF" d="M2706.083,1055.864c0.081,13.324-2.261,13.813-2.357,13.823c-0.883,0.135-3.334-2.372-6.317-12.756
			l-1.447,0.416c1.876,6.565,4.795,14.294,7.977,13.835c2.486-0.358,3.712-5.516,3.654-15.327L2706.083,1055.864z"/>
	</g>
	<path fill="#E73E30" d="M2701.634,1035.625c0.07-1.333-0.95-2.47-2.283-2.54c-1.326-0.07-2.463,0.955-2.533,2.287
		c-0.077,1.322,0.935,2.466,2.264,2.547c1.329,0.082,2.469-0.934,2.55-2.267L2701.634,1035.625l-2.41-0.126L2701.634,1035.625z"/>
	<path fill="#383938" d="M2676.803,1034.44c-0.323,5.934,1.69,11.664,5.665,16.103c3.978,4.438,9.45,7.07,15.404,7.389
		c12.286,0.674,22.832-8.77,23.507-21.057l0.005-0.099c0.644-12.288-8.828-22.812-21.12-23.456
		C2687.976,1012.676,2677.448,1022.151,2676.803,1034.44 M2698.32,1049.671c-3.747-0.204-7.184-1.859-9.685-4.65
		c-2.512-2.798-3.776-6.396-3.568-10.142c0.406-7.743,7.027-13.697,14.763-13.292c7.728,0.405,13.69,7.019,13.284,14.755
		l-0.004,0.083C2712.691,1044.146,2706.051,1050.096,2698.32,1049.671"/>
	<path fill="#E73E30" d="M2695.446,1029.741c-14.003,10.678-24.194,21.139-24.771,25.466c-0.094,0.687,0.027,1.253,0.365,1.686
		c0.334,0.445,0.846,0.717,1.529,0.807c4.319,0.575,17.117-6.473,31.124-17.149c11.466-8.74,27.433-23.19,24.406-27.155
		c-0.334-0.445-0.846-0.717-1.525-0.811C2722.251,1012.013,2709.453,1019.053,2695.446,1029.741 M2672.774,1056.201
		c-0.184-0.022-0.426-0.084-0.538-0.216c-0.104-0.14-0.095-0.39-0.074-0.578c0.444-3.253,9.07-12.94,24.201-24.472
		c15.127-11.529,26.751-17.286,30.006-16.85c0.184,0.022,0.427,0.08,0.534,0.224c0.385,0.507-0.263,2.983-5.545,8.665
		c-4.552,4.902-11.15,10.715-18.578,16.38C2687.649,1050.883,2676.024,1056.644,2672.774,1056.201"/>
	<path fill="#383938" d="M2686.841,1016.95c-10.281,6.754-13.16,20.618-6.406,30.908l6.923-4.548
		c-4.256-6.473-2.447-15.189,4.031-19.436c6.104-4.017,14.387-2.615,18.84,3.182l6.557-5.043
		C2709.708,1012.8,2696.55,1010.578,2686.841,1016.95"/>
</g>
<text transform="matrix(1 0 0 1 2733.262 1037.1113)"><tspan x="0" y="0" fill="#EE4234" font-family="'DINOT-Bold'" font-size="23.3">at</tspan><tspan x="28.169" y="0" fill="#EE4234" font-family="'DINOT-Bold'" font-size="23.3">o</tspan><tspan x="42.802" y="0" fill="#EE4234" font-family="'DINOT-Bold'" font-size="23.3">mic </tspan><tspan x="88.655" y="0" fill="#EE4234" font-family="'DINOT-Bold'" font-size="23.3">o</tspan><tspan x="103.311" y="0" fill="#EE4234" font-family="'DINOT-Bold'" font-size="23.3">bj</tspan><tspan x="130.548" y="0" fill="#EE4234" font-family="'DINOT-Bold'" font-size="23.3">e</tspan><tspan x="144.481" y="0" fill="#EE4234" font-family="'DINOT-Bold'" font-size="23.3">ct</tspan></text>
<g>
	<g>
		<path fill="#4CC2BF" d="M0.129,22.071c-0.88,2.275,2.747,5.718,10.806,10.229l0.733-1.315c-10.861-6.09-10.166-8.278-10.131-8.372
			c0.31-0.798,3.562-1.693,13.651,0.654l0.342-1.477C6.216,19.628,1.043,19.725,0.129,22.071"/>
		<path fill="#4CC2BF" d="M27.975,0.016c-1.285,0.175-2.218,1.563-2.842,4.25c-0.584,2.491-0.883,6.217-0.93,10.779l1.49-0.137
			c0.129-12.937,2.392-13.383,2.485-13.394c0.84-0.117,3.161,2.298,6,12.263l1.527-0.177C33.086,4.415,30.432-0.315,27.975,0.016"/>
		<path fill="#4CC2BF" d="M54.028,39.472c11.482,6.772,10.695,9.04,10.66,9.13c-0.347,0.827-3.752,1.648-14.191-1.135l-0.387,1.459
			c6.601,1.748,14.726,3.227,15.972,0.264c0.963-2.316-2.827-6.027-11.283-11.015L54.028,39.472z"/>
		<path fill="#4CC2BF" d="M39.61,55.864c0.081,13.324-2.261,13.813-2.357,13.823c-0.883,0.135-3.334-2.372-6.317-12.756
			l-1.447,0.416c1.876,6.565,4.795,14.294,7.977,13.835c2.486-0.358,3.712-5.516,3.654-15.327L39.61,55.864z"/>
	</g>
	<path fill="#E73E30" d="M35.161,35.625c0.07-1.333-0.95-2.47-2.283-2.54c-1.326-0.069-2.463,0.955-2.533,2.287
		c-0.077,1.322,0.935,2.466,2.264,2.547c1.329,0.082,2.469-0.934,2.55-2.267L35.161,35.625l-2.41-0.126L35.161,35.625z"/>
	<path fill="#383938" d="M10.331,34.44c-0.323,5.934,1.69,11.664,5.664,16.103c3.978,4.438,9.45,7.07,15.404,7.389
		c12.286,0.674,22.832-8.77,23.507-21.056l0.005-0.099c0.644-12.288-8.828-22.812-21.12-23.456
		C21.503,12.676,10.975,22.151,10.331,34.44 M31.847,49.671c-3.747-0.204-7.184-1.859-9.684-4.649
		c-2.512-2.798-3.776-6.396-3.568-10.142c0.406-7.743,7.027-13.697,14.763-13.292c7.728,0.405,13.69,7.019,13.285,14.755
		l-0.004,0.084C46.218,44.146,39.579,50.096,31.847,49.671"/>
	<path fill="#E73E30" d="M28.973,29.741C14.97,40.419,4.778,50.88,4.202,55.207c-0.094,0.687,0.027,1.253,0.365,1.686
		c0.334,0.445,0.846,0.717,1.529,0.807c4.319,0.575,17.117-6.473,31.124-17.149c11.466-8.74,27.433-23.19,24.406-27.155
		c-0.334-0.445-0.846-0.717-1.525-0.811C55.778,12.013,42.98,19.053,28.973,29.741 M6.301,56.201
		c-0.184-0.022-0.426-0.084-0.538-0.216c-0.104-0.14-0.095-0.389-0.074-0.578c0.444-3.253,9.07-12.94,24.201-24.472
		c15.127-11.529,26.751-17.286,30.006-16.85c0.184,0.022,0.426,0.08,0.534,0.224c0.384,0.507-0.264,2.983-5.545,8.665
		c-4.552,4.902-11.15,10.715-18.578,16.38C21.176,50.883,9.552,56.644,6.301,56.201"/>
	<path fill="#383938" d="M20.368,16.95c-10.282,6.754-13.16,20.618-6.406,30.908l6.923-4.548
		c-4.256-6.473-2.447-15.189,4.031-19.436c6.104-4.017,14.388-2.615,18.84,3.182l6.557-5.043
		C43.235,12.8,30.077,10.578,20.368,16.95"/>
</g>
<g>
	<path fill="#EE4234" d="M78.159,37.111l-0.979-2.936h-5.895l-1.002,2.936h-3.379l6.035-16.59h2.54l6.058,16.59H78.159z
		 M74.292,25.415l-2.098,6.034h4.124L74.292,25.415z"/>
	<path fill="#EE4234" d="M88.295,23.411v13.7h-3.238v-13.7h-4.334v-2.89h11.906v2.89H88.295z"/>
	<path fill="#EE4234" d="M104.792,35.504c-1.118,1.118-2.517,1.747-4.427,1.747c-1.911,0-3.332-0.629-4.45-1.747
		c-1.654-1.654-1.678-3.519-1.678-6.688s0.023-5.033,1.678-6.688c1.118-1.118,2.539-1.747,4.45-1.747
		c1.91,0,3.309,0.629,4.427,1.747c1.654,1.654,1.701,3.519,1.701,6.688S106.446,33.849,104.792,35.504z M102.438,24.156
		c-0.466-0.536-1.188-0.885-2.073-0.885c-0.886,0-1.608,0.349-2.098,0.885c-0.605,0.699-0.792,1.491-0.792,4.66
		s0.187,3.938,0.792,4.637c0.489,0.536,1.212,0.909,2.098,0.909c0.885,0,1.607-0.373,2.073-0.909
		c0.606-0.699,0.815-1.468,0.815-4.637S103.045,24.855,102.438,24.156z"/>
	<path fill="#EE4234" d="M121.218,37.111v-9.67l-3.169,6.291h-2.189l-3.192-6.291v9.67h-3.239v-16.59h3.192l4.334,8.971l4.311-8.971
		h3.192v16.59H121.218z"/>
	<path fill="#EE4234" d="M128.324,37.111v-16.59h3.239v16.59H128.324z"/>
	<path fill="#EE4234" d="M140.998,37.251c-1.91,0-3.309-0.629-4.449-1.747c-1.654-1.654-1.678-3.519-1.678-6.688
		s0.023-5.033,1.678-6.688c1.141-1.118,2.539-1.747,4.449-1.747c3.1,0,5.477,1.771,6.082,5.242h-3.309
		c-0.326-1.352-1.166-2.353-2.773-2.353c-0.885,0-1.607,0.326-2.074,0.861c-0.605,0.699-0.814,1.515-0.814,4.684
		s0.209,3.984,0.814,4.684c0.467,0.536,1.189,0.862,2.074,0.862c1.607,0,2.471-1.002,2.797-2.354h3.285
		C146.475,35.48,144.075,37.251,140.998,37.251z"/>
	<path fill="#EE4234" d="M165.278,35.504c-1.119,1.118-2.518,1.747-4.428,1.747s-3.332-0.629-4.449-1.747
		c-1.654-1.654-1.678-3.519-1.678-6.688s0.023-5.033,1.678-6.688c1.117-1.118,2.539-1.747,4.449-1.747s3.309,0.629,4.428,1.747
		c1.654,1.654,1.701,3.519,1.701,6.688S166.932,33.849,165.278,35.504z M162.924,24.156c-0.467-0.536-1.189-0.885-2.074-0.885
		s-1.607,0.349-2.098,0.885c-0.605,0.699-0.791,1.491-0.791,4.66s0.186,3.938,0.791,4.637c0.49,0.536,1.213,0.909,2.098,0.909
		s1.607-0.373,2.074-0.909c0.605-0.699,0.814-1.468,0.814-4.637S163.53,24.855,162.924,24.156z"/>
	<path fill="#EE4234" d="M176.881,37.111h-6.943v-16.59h6.664c3.238,0,5.125,1.817,5.125,4.66c0,1.841-1.211,3.029-2.049,3.425
		c1.002,0.467,2.283,1.515,2.283,3.729C181.961,35.433,179.84,37.111,176.881,37.111z M176.346,23.411h-3.17v3.821h3.17
		c1.373,0,2.143-0.77,2.143-1.911S177.719,23.411,176.346,23.411z M176.555,30.144h-3.379v4.077h3.379
		c1.469,0,2.166-0.932,2.166-2.05S178.024,30.144,176.555,30.144z"/>
	<path fill="#EE4234" d="M187.203,37.251c-1.795,0-3.029-0.466-4.264-1.701l2.143-2.12c0.535,0.536,1.049,0.933,2.121,0.933
		c1.584,0,2.609-0.933,2.609-2.843V20.521h3.238v11.138C193.051,35.317,190.278,37.251,187.203,37.251z"/>
	<path fill="#EE4234" d="M196.707,37.111v-16.59h10.928v2.89h-7.688v3.891h6.547v2.89h-6.547v4.03h7.688v2.89H196.707z"/>
	<path fill="#EE4234" d="M216.211,37.251c-1.912,0-3.309-0.629-4.451-1.747c-1.654-1.654-1.678-3.519-1.678-6.688
		s0.023-5.033,1.678-6.688c1.143-1.118,2.539-1.747,4.451-1.747c3.098,0,5.475,1.771,6.08,5.242h-3.309
		c-0.326-1.352-1.164-2.353-2.771-2.353c-0.887,0-1.609,0.326-2.074,0.861c-0.605,0.699-0.816,1.515-0.816,4.684
		s0.211,3.984,0.816,4.684c0.465,0.536,1.188,0.862,2.074,0.862c1.607,0,2.469-1.002,2.795-2.354h3.285
		C221.686,35.48,219.286,37.251,216.211,37.251z"/>
	<path fill="#EE4234" d="M231.192,23.411v13.7h-3.238v-13.7h-4.334v-2.89h11.906v2.89H231.192z"/>
</g>
</svg>
