<?xml version="1.0" encoding="UTF-8" standalone="no"?>
<svg width="16px" height="16px" viewBox="0 0 16 16" version="1.1" xmlns="http://www.w3.org/2000/svg" xmlns:xlink="http://www.w3.org/1999/xlink" xmlns:sketch="http://www.bohemiancoding.com/sketch/ns">
    <!-- Generator: Sketch 3.1 (8751) - http://www.bohemiancoding.com/sketch -->
    <title>Artboard 1</title>
    <desc>Created with Sketch.</desc>
    <defs></defs>
    <g id="Page-1" stroke="none" stroke-width="1" fill="none" fill-rule="evenodd" sketch:type="MSPage">
        <g id="Artboard-1" sketch:type="MSArtboardGroup" fill="#FFFFFF">
            <path d="M15.6875411,12.5000328 L11.0833624,7.89585404 L15.6875411,3.2916753 C15.7500413,3.20834175 15.7917081,3.1250082 15.7917081,3.02084126 C15.7917081,2.91667432 15.7500413,2.83334076 15.6875411,2.75000721 L13.0417009,0.10416694 C12.9583673,0.0416667759 12.8750338,0 12.7708668,0 C12.6666999,0 12.5833663,0.0416667759 12.5000328,0.10416694 L7.89585404,4.70834568 L3.2916753,0.10416694 C3.20834175,0.0416667759 3.1250082,0 3.02084126,0 C2.91667432,0 2.83334076,0.0416667759 2.75000721,0.10416694 L0.10416694,2.75000721 C0.0416667759,2.83334076 0,2.91667432 0,3.02084126 C0,3.1250082 0.0416667759,3.20834175 0.10416694,3.2916753 L4.70834568,7.89585404 L0.10416694,12.5000328 C0.0416667759,12.5833663 0,12.6666999 0,12.7708668 C0,12.8750338 0.0416667759,12.9583673 0.10416694,13.0417009 L2.75000721,15.6875411 C2.83334076,15.7500413 2.91667432,15.7917081 3.02084126,15.7917081 C3.1250082,15.7917081 3.20834175,15.7500413 3.2916753,15.6875411 L7.89585404,11.0833624 L12.5000328,15.6875411 C12.5833663,15.7500413 12.6666999,15.7917081 12.7708668,15.7917081 C12.8750338,15.7917081 12.9583673,15.7500413 13.0417009,15.6875411 L15.6875411,13.0417009 C15.7500413,12.9583673 15.7917081,12.8750338 15.7917081,12.7708668 C15.7917081,12.6666999 15.7500413,12.5833663 15.6875411,12.5000328 L15.6875411,12.5000328 Z" id="close" sketch:type="MSShapeGroup"></path>
        </g>
    </g>
</svg>